<?xml version="1.0" encoding="utf-8"?>
<!-- Generator: Adobe Illustrator 27.7.0, SVG Export Plug-In . SVG Version: 6.00 Build 0)  -->
<svg version="1.1" id="katman_1" xmlns="http://www.w3.org/2000/svg" xmlns:xlink="http://www.w3.org/1999/xlink" x="0px" y="0px"
	 viewBox="0 0 308 77" style="enable-background:new 0 0 308 77;" xml:space="preserve">
<style type="text/css">
	.st0{fill:url(#SVGID_1_);fill-opacity:0.4;}
</style>
<linearGradient id="SVGID_1_" gradientUnits="userSpaceOnUse" x1="154.3737" y1="77" x2="154.3737" y2="0" gradientTransform="matrix(1 0 0 -1 0 77)">
	<stop  offset="0" style="stop-color:#BA3D70"/>
	<stop  offset="1" style="stop-color:#772249"/>
</linearGradient>
<path class="st0" d="M7.89,34.33l-8.14-13.55V77H308l1-49.73h-12.97c-0.83,0.66-3.47,2.6-7.43,5.08c-3.96,2.48-7.55-1.6-8.85-3.95
	c-6.73-11.01-15.22-15.25-15.93-14.96c-0.71,0.28-6.73,5.08-11.68,10.16c-3.97,4.07-8.5,3.76-10.27,3.11
	c-5.1-9.03-8.02-12.05-8.85-12.42h-9.56l-12.03,4.8c-8.78-2.71-11.45-2.64-11.68-2.26l-14.51,15.81c-5.66,6.78-8.26,1.13-8.85-2.54
	c-3.19-14.68-6.02-20.05-7.79-20.89s-4.96,5.65-8.5,11.86c-2.83,4.97-10.15,5.83-13.45,5.65c-2.6-1.98-8.21-5.93-9.91-5.93
	c-1.7,0-7.32,4.14-9.91,6.21h-16.99c-5.95,0.45-8.61-7.15-9.2-11.01C96.95,0.16,94.61-0.97,93.91,0.45
	C82.58,12.87,75.74,16.16,73.73,16.26c-2.71-1.04-8.71-3.05-10.97-2.82c-2.83,0.28-7.79,14.68-9.09,16.09
	c-1.04,1.13-2.4,0.47-2.94,0c-3.68-11.29-7.67-15.81-9.2-16.66C36.92,14,30.9,26.7,30.54,27.55c-0.28,0.68-8.38,3.11-12.39,4.23
	C12.21,35.85,8.83,35.17,7.89,34.33z"/>
</svg>
