<svg width="308" height="136" viewBox="0 0 308 136" fill="none" xmlns="http://www.w3.org/2000/svg">
<path d="M8.10864 60.6268L0 36.6913V136H307.006L308 48.1604H295.084C294.261 49.324 291.629 52.7481 287.68 57.1362C283.732 61.5244 280.159 54.3105 278.867 50.1551C272.168 30.7075 263.707 23.2277 263.002 23.7263C262.297 24.225 256.303 32.7021 251.368 41.6779C247.419 48.8586 242.907 48.3267 241.144 47.1631C236.067 31.2062 233.153 25.8872 232.33 25.2223H222.811L210.825 33.6994C202.081 28.9123 199.425 29.0453 199.19 29.7102L184.736 57.6349C179.095 69.6026 176.51 59.6295 175.922 53.147C172.749 27.2169 169.929 17.7425 168.166 16.2465C166.403 14.7505 163.23 26.2196 159.705 37.19C156.884 45.9664 149.598 47.4956 146.308 47.1631C143.723 43.6725 138.129 36.6914 136.437 36.6914C134.744 36.6914 129.151 44.005 126.565 47.6618H109.643C103.72 48.4596 101.064 35.0291 100.477 28.2141C96.8101 0.289417 94.4832 -1.7052 93.7781 0.788074C82.4966 22.7289 75.6806 28.5466 73.6828 28.7128C70.9799 26.8844 65.0101 23.3273 62.7538 23.7262C59.9334 24.2249 54.9977 49.6563 53.6973 52.1496C52.657 54.1442 51.3104 52.9807 50.7671 52.1496C47.1006 32.2034 43.1285 24.2249 41.6008 22.7289C37.0177 24.7235 31.0243 47.163 30.6718 48.659C30.3898 49.8558 22.3281 54.1442 18.3326 56.1389C12.4097 63.3195 9.04877 62.1227 8.10864 60.6268Z" fill="url(#paint0_linear_1519_2270)" fill-opacity="0.4"/>
<defs>
<linearGradient id="paint0_linear_1519_2270" x1="154" y1="0" x2="154" y2="136" gradientUnits="userSpaceOnUse">
<stop stop-color="#FFF2FF"/>
<stop offset="1" stop-color="#D355E1"/>
</linearGradient>
</defs>
</svg>
