<?xml version="1.0" encoding="utf-8"?>
<!-- Generator: Adobe Illustrator 27.7.0, SVG Export Plug-In . SVG Version: 6.00 Build 0)  -->
<svg version="1.1" id="katman_1" xmlns="http://www.w3.org/2000/svg" xmlns:xlink="http://www.w3.org/1999/xlink" x="0px" y="0px"
	 viewBox="0 0 308 77" style="enable-background:new 0 0 308 77;" xml:space="preserve">
<style type="text/css">
	.st0{fill:url(#SVGID_1_);fill-opacity:0.4;}
</style>
<linearGradient id="SVGID_1_" gradientUnits="userSpaceOnUse" x1="154.0505" y1="77" x2="154.0505" y2="0" gradientTransform="matrix(1 0 0 -1 0 77)">
	<stop  offset="0" style="stop-color:#FFF2FF"/>
	<stop  offset="1" style="stop-color:#D355E1"/>
</linearGradient>
<path class="st0" d="M8.21,34.33L0.1,20.77V77h306.91L308,27.27h-12.91c-0.82,0.66-3.45,2.6-7.4,5.08c-3.95,2.48-7.52-1.6-8.81-3.95
	c-6.7-11.01-15.16-15.25-15.86-14.96c-0.7,0.28-6.7,5.08-11.63,10.16c-3.95,4.07-8.46,3.76-10.22,3.11
	c-5.08-9.03-7.99-12.05-8.81-12.42h-9.52l-11.98,4.8c-8.74-2.71-11.4-2.64-11.63-2.26l-14.45,15.81c-5.64,6.78-8.22,1.13-8.81-2.54
	c-3.17-14.68-5.99-20.05-7.75-20.89c-1.76-0.85-4.93,5.65-8.46,11.86c-2.82,4.97-10.1,5.83-13.39,5.65
	c-2.58-1.98-8.18-5.93-9.87-5.93c-1.69,0-7.28,4.14-9.87,6.21h-16.92c-5.92,0.45-8.58-7.15-9.16-11.01
	c-3.67-15.81-5.99-16.94-6.7-15.53C82.57,12.87,75.76,16.16,73.76,16.26c-2.7-1.04-8.67-3.05-10.93-2.82
	c-2.82,0.28-7.75,14.68-9.05,16.09c-1.04,1.13-2.39,0.47-2.93,0c-3.67-11.29-7.64-15.81-9.16-16.66C37.11,14,31.12,26.7,30.76,27.55
	c-0.28,0.68-8.34,3.11-12.34,4.23C12.51,35.85,9.15,35.17,8.21,34.33z"/>
</svg>
